<?xml version="1.0" standalone="no"?><!DOCTYPE svg PUBLIC "-//W3C//DTD SVG 1.1//EN" "http://www.w3.org/Graphics/SVG/1.1/DTD/svg11.dtd"><svg t="1565263522362" class="icon" viewBox="0 0 1024 1024" version="1.1" xmlns="http://www.w3.org/2000/svg" p-id="87598" xmlns:xlink="http://www.w3.org/1999/xlink" width="32" height="32"><defs><style type="text/css"></style></defs><path d="M666.864198 540.823704h-309.728396a37.925926 37.925926 0 0 1 0-75.851852h309.728396a37.925926 37.925926 0 1 1 0 75.851852z" fill="#ffffff" p-id="87599"></path><path d="M512 843.915062a37.925926 37.925926 0 0 1-37.925926-37.925926V516.361481a37.925926 37.925926 0 0 1 75.851852 0v289.627655a37.925926 37.925926 0 0 1-37.925926 37.925926z" fill="#ffffff" p-id="87600"></path><path d="M511.620741 521.860741a37.925926 37.925926 0 0 1-32.173827-17.825185L324.835556 257.200988a37.925926 37.925926 0 1 1 64.474074-40.264692l154.421728 246.897778a37.925926 37.925926 0 0 1-32.110617 58.026667zM589.179259 398.222222a37.925926 37.925926 0 0 1-32.110617-58.026666L634.563951 216.936296a37.925926 37.925926 0 1 1 64.284444 40.264692L621.353086 380.586667A37.925926 37.925926 0 0 1 589.179259 398.222222zM612.819753 708.898765h-201.639506a37.925926 37.925926 0 0 1 0-75.851851h201.639506a37.925926 37.925926 0 0 1 0 75.851851z" fill="#ffffff" p-id="87601"></path><path d="M512 1024C234.508642 1024 8.786173 794.295309 8.786173 512 8.786173 224.900741 230.020741 0 512 0s503.213827 224.900741 503.213827 512c0 282.295309-225.722469 512-503.213827 512z m0-948.148148C272.371358 75.851852 84.638025 267.440988 84.638025 512c0 240.197531 191.715556 436.148148 427.361975 436.148148s427.361975-195.950617 427.361975-436.148148c0-244.559012-187.733333-436.148148-427.361975-436.148148z" fill="#ffffff" p-id="87602"></path></svg>