<?xml version="1.0" standalone="no"?><!DOCTYPE svg PUBLIC "-//W3C//DTD SVG 1.1//EN" "http://www.w3.org/Graphics/SVG/1.1/DTD/svg11.dtd"><svg t="1565263181326" class="icon" viewBox="0 0 1024 1024" version="1.1" xmlns="http://www.w3.org/2000/svg" p-id="84260" xmlns:xlink="http://www.w3.org/1999/xlink" width="32" height="32"><defs><style type="text/css"></style></defs><path d="M628.48 5.76H145.92A145.664 145.664 0 0 0 0 150.848v726.4a145.664 145.664 0 0 0 145.92 145.152h730.56a145.664 145.664 0 0 0 145.92-145.088V396.48c0-26.048-18.944-35.264-35.2-35.264-19.2 0-38.592 12.096-38.592 35.2v480.896c0 19.008-7.552 36.928-21.248 50.56-13.696 13.632-31.808 21.12-50.88 21.12H145.92c-19.072 0-37.12-7.488-50.88-21.12a70.976 70.976 0 0 1-21.248-50.56V150.848c0-19.008 7.552-36.928 21.248-50.56 13.696-13.632 31.808-21.12 50.88-21.12h482.56c26.176 0 39.872-19.136 39.872-37.952a34.56 34.56 0 0 0-9.472-24.384C651.84 9.6 641.28 5.76 628.416 5.76" fill="#ffffff" p-id="84261"></path><path d="M884.224 16.64a32.832 32.832 0 0 0-46.592 0L406.592 445.248a32.448 32.448 0 0 0-9.28 18.112l-24.32 154.688a32.64 32.64 0 0 0 38.912 37.12l150.336-29.312c6.4-1.28 12.288-4.352 16.96-8.96l211.712-210.56a32.448 32.448 0 0 0 0-46.272 32.768 32.768 0 0 0-46.528 0l-202.816 201.6-1.856 1.92-2.56 0.448-79.68 15.552-12.16 2.368 1.92-12.16 13.056-83.008 0.448-2.752 1.984-1.984 392.064-389.888 6.144-6.144 6.144 6.144 67.2 66.816 6.144 6.144-6.144 6.08-41.984 41.792-6.144 6.08-6.144-6.08-16-15.872a32.768 32.768 0 0 0-46.528 0c-12.8 12.736-12.8 33.472 0 46.272l45.44 45.12a32.768 32.768 0 0 0 46.464 0l100.864-100.288c12.8-12.8 12.8-33.536 0-46.272L884.16 16.64z" fill="#ffffff" p-id="84262"></path></svg>