<?xml version="1.0" standalone="no"?><!DOCTYPE svg PUBLIC "-//W3C//DTD SVG 1.1//EN" "http://www.w3.org/Graphics/SVG/1.1/DTD/svg11.dtd"><svg t="1565262993819" class="icon" viewBox="0 0 1024 1024" version="1.1" xmlns="http://www.w3.org/2000/svg" p-id="69107" xmlns:xlink="http://www.w3.org/1999/xlink" width="32" height="32"><defs><style type="text/css"></style></defs><path d="M302.02368 533.99552c-101.9392 0-184.87296-82.944-184.87296-184.87808S200.08448 164.2496 302.02368 164.2496c101.9392 0 184.86784 82.93376 184.86784 184.86784s-82.93376 184.87808-184.86784 184.87808z m0-318.55104c-73.70752 0-133.67296 59.96544-133.67296 133.66784s59.96544 133.66784 133.67296 133.66784 133.66784-59.96544 133.66784-133.66784-59.96544-133.66784-133.66784-133.66784z" fill="#ffffff" p-id="69108"></path><path d="M581.36576 847.88224a25.6 25.6 0 0 1-25.6-25.6c0-135.67488-110.32064-246.05696-245.92384-246.05696-135.61344 0-245.94432 110.336-245.94432 245.95456a25.6 25.6 0 1 1-51.2 0c0-163.85536 133.2992-297.16992 297.14432-297.16992 163.83488 0 297.12384 133.36064 297.12384 297.27232a25.6 25.6 0 0 1-25.6 25.6z" fill="#ffffff" p-id="69109"></path><path d="M38.2976 848c-14.13632 0-25.6-11.3408-25.6-25.48224v-0.24064a25.6 25.6 0 1 1 51.2 0c0 14.14144-11.45856 25.72288-25.6 25.72288zM977.62304 329.23136h-286.09024a25.6 25.6 0 1 1 0-51.2h286.09024a25.6 25.6 0 1 1 0 51.2z" fill="#ffffff" p-id="69110"></path><path d="M980.54144 521.1648h-286.08512a25.6 25.6 0 0 1 0-51.20512h286.08512a25.6 25.6 0 1 1 0 51.20512z" fill="#ffffff" p-id="69111"></path><path d="M980.54144 700.09344h-286.08512c-14.14144 0-25.6-11.45856-25.6-25.6s11.45856-25.6 25.6-25.6h286.08512a25.6 25.6 0 1 1 0 51.2z" fill="#ffffff" p-id="69112"></path></svg>