<?xml version="1.0" standalone="no"?><!DOCTYPE svg PUBLIC "-//W3C//DTD SVG 1.1//EN" "http://www.w3.org/Graphics/SVG/1.1/DTD/svg11.dtd"><svg t="1565262906830" class="icon" viewBox="0 0 1024 1024" version="1.1" xmlns="http://www.w3.org/2000/svg" p-id="64977" xmlns:xlink="http://www.w3.org/1999/xlink" width="32" height="32"><defs><style type="text/css"></style></defs><path d="M503.125333 432.355556m-68.266666 0a68.266667 68.266667 0 1 0 136.533333 0 68.266667 68.266667 0 1 0-136.533333 0Z" fill="#ffffff" p-id="64978"></path><path d="M523.377778 532.184178c23.9616-6.690133 43.235556-17.225956 57.844622-31.561956 14.586311-14.336 23.233422-31.266133 25.941333-50.744889L935.685689 705.422222c-16.725333 23.688533-37.546667 48.082489-62.464 73.136356a805.660444 805.660444 0 0 1-80.713956 70.906311L523.377778 532.184178zM525.880889 317.257956c23.9616 6.712889 43.235556 17.225956 57.844622 31.584711 14.586311 14.336 23.233422 31.266133 25.941333 50.744889L938.1888 144.042667c-16.725333-23.688533-37.546667-48.082489-62.464-73.136356A805.660444 805.660444 0 0 0 795.010844 0L525.880889 317.257956zM480.597333 532.184178c-23.984356-6.690133-43.258311-17.225956-57.867377-31.561956-14.586311-14.336-23.233422-31.266133-25.941334-50.744889L68.266667 705.422222c16.725333 23.688533 37.546667 48.082489 62.464 73.136356a805.660444 805.660444 0 0 0 80.713955 70.906311l269.129956-317.280711zM483.100444 317.257956c-23.984356 6.712889-43.258311 17.225956-57.867377 31.584711-14.586311 14.336-23.233422 31.266133-25.941334 50.744889L70.769778 144.042667c16.725333-23.688533 37.546667-48.082489 62.464-73.136356A805.660444 805.660444 0 0 1 213.947733 0l269.129956 317.257956zM497.436444 555.918222l-180.701866 219.818667-58.254222 146.090667c79.644444 57.526044 159.835022 86.266311 240.526222 86.266311 80.713956 0 160.881778-28.740267 240.526222-86.243556l-56.957156-146.113422-185.1392-219.818667z" fill="#ffffff" p-id="64979"></path></svg>