<?xml version="1.0" standalone="no"?><!DOCTYPE svg PUBLIC "-//W3C//DTD SVG 1.1//EN" "http://www.w3.org/Graphics/SVG/1.1/DTD/svg11.dtd"><svg t="1578647672691" class="icon" viewBox="0 0 1024 1024" version="1.1" xmlns="http://www.w3.org/2000/svg" p-id="1338" width="40" height="40" xmlns:xlink="http://www.w3.org/1999/xlink"><defs><style type="text/css"></style></defs><path d="M770 913H279a62.07 62.07 0 0 1-62-62V221a62.07 62.07 0 0 1 62-62h491a62.07 62.07 0 0 1 62 62v630a62.07 62.07 0 0 1-62 62zM279 183a38 38 0 0 0-38 38v630a38 38 0 0 0 38 38h491a38 38 0 0 0 38-38V221a38 38 0 0 0-38-38z" p-id="1339" fill="#ffffff"></path><path d="M529 466.5a438.27 438.27 0 0 1-306.23-123.86 12 12 0 0 1 16.68-17.25A414.39 414.39 0 0 0 529 442.5a415.79 415.79 0 0 0 277.37-105.79 12 12 0 0 1 16 17.9A439.78 439.78 0 0 1 529 466.5z" p-id="1340" fill="#ffffff"></path></svg>