<?xml version="1.0" standalone="no"?><!DOCTYPE svg PUBLIC "-//W3C//DTD SVG 1.1//EN" "http://www.w3.org/Graphics/SVG/1.1/DTD/svg11.dtd"><svg t="1565261103174" class="icon" viewBox="0 0 1024 1024" version="1.1" xmlns="http://www.w3.org/2000/svg" p-id="53995" xmlns:xlink="http://www.w3.org/1999/xlink" width="32" height="32"><defs><style type="text/css"></style></defs><path d="M123.373494 37.012048h185.060241c67.855422 0 123.373494 55.518072 123.373494 123.373494v308.433735H123.373494c-67.855422 0-123.373494-55.518072-123.373494-123.373494v-185.060241c0-67.855422 55.518072-123.373494 123.373494-123.373494zM123.373494 592.192771h308.433735v308.433735c0 67.855422-55.518072 123.373494-123.373494 123.373494H123.373494c-67.855422 0-123.373494-55.518072-123.373494-123.373494v-185.060241c0-67.855422 55.518072-123.373494 123.373494-123.373494z" fill="#ffffff" p-id="53996"></path><path d="M771.084337 561.349398L555.180723 339.277108c-24.674699-24.674699-37.012048-55.518072-37.012048-86.361445 0-30.843373 12.337349-61.686747 37.012048-86.361446L684.722892 37.012048c49.349398-49.349398 129.542169-49.349398 172.722891 0L986.987952 166.554217c24.674699 24.674699 37.012048 55.518072 37.012048 86.361446 0 30.843373-12.337349 61.686747-37.012048 86.361445l-215.903615 222.07229z m0-499.662651c-18.506024 0-30.843373 6.168675-43.180723 18.506024L598.361446 209.73494c-12.337349 12.337349-18.506024 24.674699-18.506024 43.180723 0 18.506024 6.168675 30.843373 18.506024 43.180723l172.722891 172.722891 172.722892-172.722891c12.337349-12.337349 18.506024-24.674699 18.506024-43.180723 0-18.506024-6.168675-30.843373-18.506024-43.180723l-129.542169-129.542169c-12.337349-12.337349-24.674699-18.506024-43.180723-18.506024z" fill="#ffffff" p-id="53997"></path><path d="M555.180723 592.192771h308.433735c67.855422 0 123.373494 55.518072 123.373494 123.373494v185.060241c0 67.855422-55.518072 123.373494-123.373494 123.373494h-185.060241c-67.855422 0-123.373494-55.518072-123.373494-123.373494v-308.433735z" fill="#ffffff" p-id="53998"></path></svg>