<?xml version="1.0" standalone="no"?><!DOCTYPE svg PUBLIC "-//W3C//DTD SVG 1.1//EN" "http://www.w3.org/Graphics/SVG/1.1/DTD/svg11.dtd"><svg t="1565260850274" class="icon" viewBox="0 0 1208 1024" version="1.1" xmlns="http://www.w3.org/2000/svg" p-id="46519" xmlns:xlink="http://www.w3.org/1999/xlink" width="37.75" height="32"><defs><style type="text/css"></style></defs><path d="M489.0775045 321.8113206C327.75674961 321.8113206 154.54920254 275.96226377 154.54920254 191.05660391S327.75674961 62 489.0775045 62c163.01886768 0 334.52830195 45.84905684 334.52830195 129.05660391 0 84.90566075-171.50943427 130.7547167-334.52830195 130.75471669z m0-220.75471669C307.3793917 101.05660391 195.30392012 153.69811279 195.30392012 191.05660391S307.3793917 282.7547167 487.3793917 282.7547167C674.17184463 282.7547167 784.54920254 231.8113206 784.54920254 191.05660391 784.54920254 153.69811279 672.47373096 101.05660391 487.3793917 101.05660391z" fill="#ffffff" p-id="46520"></path><path d="M489.0775045 321.8113206C327.75674961 321.8113206 154.54920254 275.96226377 154.54920254 191.05660391a20.37735879 20.37735879 0 0 1 40.75471758 0C195.30392012 228.41509414 307.3793917 282.7547167 487.3793917 282.7547167 674.17184463 282.7547167 784.54920254 231.8113206 784.54920254 191.05660391 784.54920254 180.86792451 793.03976914 172.37735878 803.22844766 172.37735878c11.88679219 0 20.37735879 8.49056572 20.37735878 18.67924513 0 84.90566075-171.50943427 130.7547167-334.52830195 130.75471669z" fill="#ffffff" p-id="46521"></path><path d="M489.0775045 445.77358526C327.75674961 445.77358526 154.54920254 399.92452842 154.54920254 315.01886768a20.37735879 20.37735879 0 1 1 40.75471758 0c0 37.35849023 112.07547158 90 293.77358438 90h54.33962255C553.60580644 401.62264121 563.79448584 410.11320781 563.79448584 420.30188721a20.37735879 20.37735879 0 0 1-16.98113232 22.07547157 857.54716963 857.54716963 0 0 1-57.73584903 0z" fill="#ffffff" p-id="46522"></path><path d="M174.92656133 335.39622646A20.37735879 20.37735879 0 0 1 154.54920254 316.71698135V192.7547167a20.37735879 20.37735879 0 0 1 40.75471758 0V316.71698135a20.37735879 20.37735879 0 0 1-20.37735879 20.3773579z" fill="#ffffff" p-id="46523"></path><path d="M803.22844766 323.50943427A20.37735879 20.37735879 0 0 1 784.54920254 303.13207549V192.7547167C784.54920254 182.56603731 793.03976914 174.07547158 803.22844766 174.07547158c11.88679219 0 20.37735879 8.49056572 20.37735878 18.67924512v110.37735879a20.37735879 20.37735879 0 0 1-20.37735878 20.37735878z" fill="#ffffff" p-id="46524"></path><path d="M467.00203291 683.50943427C317.56807109 680.11320781 198.70014658 642.7547167 164.73788193 588.41509414A20.37735879 20.37735879 0 0 1 171.53033487 561.2452833 20.37735879 20.37735879 0 0 1 198.70014658 568.03773623c23.77358526 33.96226377 122.26415097 71.32075489 268.30188633 74.71698047a20.37735879 20.37735879 0 0 1 0 40.75471757z" fill="#ffffff" p-id="46525"></path><path d="M504.36052315 807.47169805C334.54920254 807.47169805 154.54920254 758.22641474 154.54920254 678.41509414a20.37735879 20.37735879 0 0 1 40.75471758 0c0 33.96226377 122.26415097 88.30188721 309.05660303 88.30188721a20.37735879 20.37735879 0 0 1 0 40.7547167z" fill="#ffffff" p-id="46526"></path><path d="M397.3793917 489.92452842C232.66241035 489.92452842 62.85108974 444.07547158 62.85108974 360.86792451 62.85108974 333.69811279 79.83222207 292.94339609 166.4359956 264.07547158A20.37735879 20.37735879 0 1 1 181.71901426 301.43396269C132.47373096 318.41509414 101.90769365 340.49056573 101.90769365 360.86792451c0 37.35849023 112.07547158 88.30188721 295.47169805 88.30188721A830.37735878 830.37735878 0 0 0 502.66241035 444.07547158C512.85108974 442.37735879 521.34165547 449.16981172 524.73788193 461.05660391a20.37735879 20.37735879 0 0 1-16.98113232 22.07547158 877.92452842 877.92452842 0 0 1-110.37735791 6.79245293z" fill="#ffffff" p-id="46527"></path><path d="M397.3793917 613.88679219C232.66241035 613.88679219 62.85108974 568.03773623 62.85108974 483.13207549a20.37735879 20.37735879 0 1 1 39.05660391 0c0 39.05660391 112.07547158 90 295.47169805 90L468.70014658 571.43396269C478.8888251 571.43396269 487.3793917 578.22641474 487.3793917 588.41509414a20.37735879 20.37735879 0 0 1-16.98113232 22.07547159 922.07547158 922.07547158 0 0 1-74.71698136 3.39622646z" fill="#ffffff" p-id="46528"></path><path d="M83.22844766 503.50943428A20.37735879 20.37735879 0 0 1 62.85108974 483.13207549V360.86792451a20.37735879 20.37735879 0 0 1 39.05660391 0v122.26415098A20.37735879 20.37735879 0 0 1 83.22844766 503.50943428z" fill="#ffffff" p-id="46529"></path><path d="M174.92656133 707.28301865A20.37735879 20.37735879 0 0 1 154.54920254 690.30188721V579.92452842a20.37735879 20.37735879 0 0 1 40.75471758 0v106.98113232a20.37735879 20.37735879 0 0 1-20.37735879 20.37735791z" fill="#ffffff" p-id="46530"></path><path d="M786.24731622 960.30188721a334.52830195 334.52830195 0 1 1-1e-8-670.75471758 334.52830195 334.52830195 0 0 1 0 670.75471758z m-1e-8-628.30188721a295.47169805 295.47169805 0 1 0 0 589.2452833 295.47169805 295.47169805 0 0 0 0-590.94339609z" fill="#ffffff" p-id="46531"></path><path d="M767.56807109 770.11320781A129.05660391 129.05660391 0 0 1 687.75674961 732.7547167l11.88679307-16.98113144 3.39622646-3.39622647H708.1341084c3.39622646 0 6.79245293 0 8.49056572 3.39622647a280.1886794 280.1886794 0 0 0 30.56603818 16.98113144A76.41509414 76.41509414 0 0 0 770.96429756 741.2452833L776.05863682 632.56603731A326.03773623 326.03773623 0 0 1 750.58693877 622.37735879 95.09433925 95.09433925 0 0 1 725.11524073 608.79245293 64.52830195 64.52830195 0 0 1 708.1341084 586.71698135a73.01886768 73.01886768 0 0 1-6.79245293-33.96226465 78.11320781 78.11320781 0 0 1 22.07547158-54.33962256 93.39622646 93.39622646 0 0 1 64.52830196-25.47169805L793.03976914 444.07547158 793.03976914 435.58490586A8.49056572 8.49056572 0 0 1 801.53033487 433.88679219h13.58490585L810.02090058 474.64150977a101.88679219 101.88679219 0 0 1 37.35849112 10.18867851 123.96226377 123.96226377 0 0 1 27.16981084 20.3773588L867.75674961 520.49056572C864.36052315 522.1886794 860.96429756 525.58490586 857.56807109 525.58490586L850.77561817 520.49056572 840.58693877 517.09433925A157.92452842 157.92452842 0 0 0 827.00203291 510.30188721 69.62264121 69.62264121 0 0 0 810.02090058 503.50943428L803.22844766 603.69811279a543.39622646 543.39622646 0 0 1 28.86792451 10.1886794l25.47169892 13.58490586a62.83018828 62.83018828 0 0 1 16.98113144 20.37735879 62.83018828 62.83018828 0 0 1 8.49056661 32.26415097 98.49056573 98.49056573 0 0 1-6.79245293 33.96226377 84.90566075 84.90566075 0 0 1-45.84905683 49.24528331 93.39622646 93.39622646 0 0 1-39.05660391 6.79245292L789.64354268 809.16981172 786.24731622 814.26415097a10.1886794 10.1886794 0 0 1-6.79245294 3.39622647H765.86995742L767.56807109 770.11320781zM735.30392012 549.35849023c0 6.79245293 0 11.88679219 3.39622646 16.98113233a39.05660391 39.05660391 0 0 0 10.18867852 13.58490586 64.52830195 64.52830195 0 0 0 13.58490586 8.49056572 157.92452842 157.92452842 0 0 0 16.98113232 8.4905666L786.24731622 503.50943428a78.11320781 78.11320781 0 0 0-22.07547159 5.09433926 50.94339609 50.94339609 0 0 0-16.98113232 10.18867939 40.7547167 40.7547167 0 0 0-11.8867922 30.5660373z m113.77358438 135.84905684A37.35849023 37.35849023 0 0 0 833.79448584 654.64150977 67.92452842 67.92452842 0 0 0 818.51146719 646.15094317 207.16981172 207.16981172 0 0 0 801.53033487 639.35849023L793.03976914 741.2452833 816.81335352 732.7547167A54.33962256 54.33962256 0 0 0 833.79448584 724.26415097 47.54716963 47.54716963 0 0 0 845.68127802 707.28301865 57.73584903 57.73584903 0 0 0 849.0775045 685.20754707z" fill="#ffffff" p-id="46532"></path></svg>