<?xml version="1.0" standalone="no"?><!DOCTYPE svg PUBLIC "-//W3C//DTD SVG 1.1//EN" "http://www.w3.org/Graphics/SVG/1.1/DTD/svg11.dtd"><svg t="1565260957809" class="icon" viewBox="0 0 1024 1024" version="1.1" xmlns="http://www.w3.org/2000/svg" p-id="50269" xmlns:xlink="http://www.w3.org/1999/xlink" width="32" height="32"><defs><style type="text/css"></style></defs><path d="M317.538 58.289c19.596 9.698 48.39 22.995 86.883 22.995 28.095 0 57.489-7.298 87.183-21.796 0.3-0.2 1.2-0.2 1.6-0.2 10.498 0 30.394 9.799 46.49 17.597 25.996 12.698 52.89 25.795 82.984 25.795 14.498 0 28.195-3.2 40.692-9.398 21.396-10.698 34.594-14.697 42.192-16.097-4.199 8.798-12.197 20.796-23.495 30.994-20.096 18.196-81.484 115.777-170.567 115.777-80.884 0-156.97-75.785-185.264-123.776-9.598-16.496-10.798-31.493-8.698-41.891M511.5 308.639c212.859 0 395.323 276.447 395.323 502.803 0 103.58-32.594 124.375-68.987 137.873C775.15 972.71 664.57 972.71 511.5 972.71c-151.57 0-261.149 0-324.537-23.395-37.292-13.798-70.686-34.694-70.686-137.873 0-226.256 182.365-502.802 395.223-502.802M306.34 0.1c-5.299 0-10.298 1.7-15.197 5.799-27.395 22.995-36.593 73.086-8.898 120.176C319.038 188.663 409.92 275.146 511.6 275.146s172.066-99.28 204.86-128.775c33.793-30.394 63.488-87.183 27.795-111.178-8.199-5.499-17.797-9.798-31.894-9.798-16.397 0-38.693 5.799-71.686 22.196-5.599 2.8-11.598 3.999-17.897 3.999-37.792 0-86.283-43.392-129.474-43.392-8.199 0-16.297 1.6-23.996 5.3-25.095 12.197-46.49 16.596-64.887 16.596-47.89 0-75.585-29.994-98.08-29.994zM511.5 257.45c-246.952 0-446.413 307.14-446.413 554.091C65.087 1023.9 194.162 1024 511.5 1024c322.537 0 446.513 0 446.513-212.459 0-246.951-199.561-554.091-446.513-554.091z" fill="#ffffff" p-id="50270"></path><path d="M644.674 640.575H378.426v51.19h266.248v-51.19z" fill="#ffffff" p-id="50271"></path><path d="M655.372 485.805h-71.086l-80.584 164.668h32.593l119.077-164.668z" fill="#ffffff" p-id="50272"></path><path d="M438.814 485.805h-71.086l119.077 164.668h32.594l-80.585-164.668z m205.86 263.749H378.426v51.19h266.248v-51.19z" fill="#ffffff" p-id="50273"></path><path d="M537.095 640.575h-51.19v255.95h51.19v-255.95zM840.336 405.42c-15.397-32.693-154.87-124.275-223.357-146.47-3.699 0.9-5.798 1.6-5.998 1.6l-2.1 0.499c-2.1 0.3-26.995 4.1-63.987 3.8a5136.26 5136.26 0 0 0-34.194 8.898c-66.887 17.496-150.17 39.392-187.663 41.191-17.797 0.7-32.894-7.898-40.092-23.295-9.498-20.096-4-47.39 13.197-66.387 10.998-12.098 43.092-37.693 104.38-15.597 51.39 18.596 102.98 23.695 141.272 24.295 16.297-4.199 29.994-7.498 39.792-9.498 8.299-1.7 19.797-0.3 33.394 3.3 32.394-7.499 116.777-21.396 170.167 22.895 55.689 46.191 110.978 48.79 127.775 42.792l10.298 28.894c-26.895 9.598-93.582 5.099-157.67-48.09-25.195-20.896-61.188-25.096-92.182-23.696 79.985 38.293 178.566 107.679 194.562 141.672l-27.594 13.198zM355.13 231.656c-15.097 0-27.495 4.799-36.193 14.297-10.098 10.998-11.698 25.095-8.099 32.594 1.3 2.799 3.7 6.098 10.898 5.698 26.095-1.2 81.684-14.497 134.174-27.894-21.196-4-43.392-9.698-65.687-17.797-12.798-4.599-24.595-6.898-35.093-6.898z" fill="#ffffff" p-id="50274"></path><path d="M877.229 307.64a40.992 40.992 0 1 0 81.984 0 40.992 40.992 0 1 0-81.984 0zM810.442 398.822a40.992 40.992 0 1 0 81.984 0 40.992 40.992 0 1 0-81.984 0z" fill="#ffffff" p-id="50275"></path></svg>