<?xml version="1.0" standalone="no"?><!DOCTYPE svg PUBLIC "-//W3C//DTD SVG 1.1//EN" "http://www.w3.org/Graphics/SVG/1.1/DTD/svg11.dtd"><svg t="1565261068758" class="icon" viewBox="0 0 1024 1024" version="1.1" xmlns="http://www.w3.org/2000/svg" p-id="53105" xmlns:xlink="http://www.w3.org/1999/xlink" width="32" height="32"><defs><style type="text/css"></style></defs><path d="M555.7 958.3h-88c-26 0.1-49.4-15.7-59.2-39.7-5.6-13.6-13.6-34.7-22.3-62.1-10.2-3.7-20.3-7.9-30.2-12.5-25.5 13.3-46.1 22.5-59.7 28.2-23.9 10.1-51.6 4.7-69.9-13.7l-62.3-62.3c-18.4-18.3-23.8-46-13.7-69.9 5.7-13.6 14.9-34.2 28.2-59.7-4.6-9.9-8.7-19.9-12.5-30.2-27.4-8.7-48.5-16.7-62.1-22.3-24-9.7-39.7-33.1-39.7-59.1v-88c-0.1-26 15.7-49.4 39.7-59.2 13.6-5.6 34.7-13.6 62.1-22.3 3.7-10.2 7.9-20.3 12.5-30.1-13.3-25.5-22.5-46.1-28.2-59.7-10.1-23.9-4.7-51.6 13.7-69.9l62.3-62.3c18.3-18.4 46-23.8 69.9-13.7 13.6 5.7 34.1 14.9 59.7 28.2 9.9-4.6 20-8.7 30.2-12.5 8.7-27.4 16.7-48.5 22.3-62.1 9.8-24.1 33.2-39.8 59.2-39.7h88c26-0.1 49.4 15.7 59.2 39.7 5.6 13.6 13.6 34.7 22.3 62.1 10.2 3.7 20.3 7.9 30.2 12.5 25.5-13.3 46.1-22.5 59.7-28.2 23.9-10.1 51.6-4.7 69.9 13.7l62.3 62.3c18.4 18.3 23.8 46 13.7 69.9-5.7 13.6-14.9 34.1-28.2 59.7 4.6 9.9 8.7 20 12.5 30.2 27.4 8.7 48.5 16.7 62.1 22.3 24.1 9.8 39.8 33.2 39.7 59.2v88c0.1 26-15.7 49.4-39.7 59.2-13.6 5.6-34.7 13.6-62.1 22.3-3.7 10.2-7.9 20.3-12.5 30.2 13.3 25.5 22.5 46.1 28.2 59.7 10.1 23.9 4.7 51.6-13.7 69.9L797 858.7c-18.3 18.4-46 23.8-69.9 13.7-13.6-5.7-34.1-14.9-59.7-28.2-9.9 4.6-20 8.7-30.2 12.5-8.7 27.4-16.7 48.5-22.3 62.1-9.8 23.9-33.2 39.6-59.2 39.5zM355.6 776.1c5.2 0 10.3 1.3 14.9 3.7 16.3 8.6 33.4 15.7 51 21.1 10.2 3.2 18.1 11.2 21.1 21.4 9.7 32.8 19 57.3 25 72.1h88c6.1-14.8 15.3-39.3 25-72.1 3-10.2 11-18.3 21.1-21.4 17.6-5.5 34.7-12.6 51-21.2 9.4-5 20.7-4.9 30.1 0.2 30.1 16.3 53.9 27.1 68.7 33.3l62.3-62.2c-6.2-14.8-17-38.6-33.3-68.7-5.1-9.4-5.1-20.7-0.2-30.1 8.6-16.3 15.7-33.4 21.1-51C804.8 591 812.8 583 823 580c32.8-9.7 57.3-19 72.1-25v-88c-14.8-6.1-39.3-15.3-72.1-25-10.2-3-18.3-11-21.4-21.1-5.5-17.6-12.6-34.7-21.1-51-5-9.4-4.9-20.7 0.2-30.1 16.3-30.1 27.1-53.9 33.3-68.7l-62.2-62.2c-14.8 6.2-38.6 17-68.7 33.3-9.4 5.1-20.7 5.2-30.1 0.2-16.3-8.6-33.4-15.7-51-21.1-10.2-3.2-18.1-11.2-21.1-21.4-9.7-32.8-19-57.3-25-72.1h-88c-6 14.8-15.2 39.1-25 71.7-2.9 10.4-10.9 18.6-21.3 21.8-17.6 5.5-34.7 12.5-51 21.1-9.4 5-20.7 4.9-30.1-0.2-30.1-16.3-53.9-27.1-68.7-33.3L209.4 271c6.2 14.8 17 38.6 33.3 68.7 5.1 9.4 5.2 20.7 0.2 30.1-8.6 16.3-15.7 33.4-21.1 51-3.2 10.2-11.2 18.1-21.4 21.2-32.8 9.7-57.3 19-72.1 25v88c14.7 6 38.9 15.2 71.4 24.8 10.8 3 19.3 11.4 22.4 22.2 5.4 17.1 12.3 33.7 20.6 49.5 5.5 9.8 5.3 21.8-0.3 31.5-16 29.7-26.7 53.3-32.8 67.9l62.2 62.3c14.8-6.2 38.6-17 68.7-33.3 4.5-2.4 9.8-3.8 15.1-3.8z m0 0" fill="#ffffff" p-id="53106"></path><path d="M555.7 958.3h-88c-26 0.1-49.4-15.7-59.2-39.7-5.6-13.6-13.6-34.7-22.3-62.1-10.2-3.7-20.3-7.9-30.2-12.5-25.5 13.3-46.1 22.5-59.7 28.2-23.9 10.1-51.6 4.7-69.9-13.7l-62.3-62.3c-18.4-18.3-23.8-46-13.7-69.9 5.7-13.6 14.9-34.2 28.2-59.7-4.6-9.9-8.7-19.9-12.5-30.2-27.4-8.7-48.5-16.7-62.1-22.3-24-9.7-39.7-33.1-39.7-59.1v-88c-0.1-26 15.7-49.4 39.7-59.2 13.6-5.6 34.7-13.6 62.1-22.3 3.7-10.2 7.9-20.3 12.5-30.1-13.3-25.5-22.5-46.1-28.2-59.7-10.1-23.9-4.7-51.6 13.7-69.9l62.3-62.3c18.3-18.4 46-23.8 69.9-13.7 13.6 5.7 34.1 14.9 59.7 28.2 9.9-4.6 20-8.7 30.2-12.5 8.7-27.4 16.7-48.5 22.3-62.1 9.8-24.1 33.2-39.8 59.2-39.7h88c26-0.1 49.4 15.7 59.2 39.7 5.6 13.6 13.6 34.7 22.3 62.1 10.2 3.7 20.3 7.9 30.2 12.5 25.5-13.3 46.1-22.5 59.7-28.2 23.9-10.1 51.6-4.7 69.9 13.7l62.3 62.3c18.4 18.3 23.8 46 13.7 69.9-5.7 13.6-14.9 34.1-28.2 59.7 4.6 9.9 8.7 20 12.5 30.2 27.4 8.7 48.5 16.7 62.1 22.3 24.1 9.8 39.8 33.2 39.7 59.2v88c0.1 26-15.7 49.4-39.7 59.2-13.6 5.6-34.7 13.6-62.1 22.3-3.7 10.2-7.9 20.3-12.5 30.2 13.3 25.5 22.5 46.1 28.2 59.7 10.1 23.9 4.7 51.6-13.7 69.9L797 858.7c-18.3 18.4-46 23.8-69.9 13.7-13.6-5.7-34.1-14.9-59.7-28.2-9.9 4.6-20 8.7-30.2 12.5-8.7 27.4-16.7 48.5-22.3 62.1-9.8 23.9-33.2 39.6-59.2 39.5zM355.6 776.1c5.2 0 10.3 1.3 14.9 3.7 16.3 8.6 33.4 15.7 51 21.1 10.2 3.2 18.1 11.2 21.1 21.4 9.7 32.8 19 57.3 25 72.1h88c6.1-14.8 15.3-39.3 25-72.1 3-10.2 11-18.3 21.1-21.4 17.6-5.5 34.7-12.6 51-21.2 9.4-5 20.7-4.9 30.1 0.2 30.1 16.3 53.9 27.1 68.7 33.3l62.3-62.2c-6.2-14.8-17-38.6-33.3-68.7-5.1-9.4-5.1-20.7-0.2-30.1 8.6-16.3 15.7-33.4 21.1-51C804.8 591 812.8 583 823 580c32.8-9.7 57.3-19 72.1-25v-88c-14.8-6.1-39.3-15.3-72.1-25-10.2-3-18.3-11-21.4-21.1-5.5-17.6-12.6-34.7-21.1-51-5-9.4-4.9-20.7 0.2-30.1 16.3-30.1 27.1-53.9 33.3-68.7l-62.2-62.2c-14.8 6.2-38.6 17-68.7 33.3-9.4 5.1-20.7 5.2-30.1 0.2-16.3-8.6-33.4-15.7-51-21.1-10.2-3.2-18.1-11.2-21.1-21.4-9.7-32.8-19-57.3-25-72.1h-88c-6 14.8-15.2 39.1-25 71.7-2.9 10.4-10.9 18.6-21.3 21.8-17.6 5.5-34.7 12.5-51 21.1-9.4 5-20.7 4.9-30.1-0.2-30.1-16.3-53.9-27.1-68.7-33.3L209.4 271c6.2 14.8 17 38.6 33.3 68.7 5.1 9.4 5.2 20.7 0.2 30.1-8.6 16.3-15.7 33.4-21.1 51-3.2 10.2-11.2 18.1-21.4 21.2-32.8 9.7-57.3 19-72.1 25v88c14.7 6 38.9 15.2 71.4 24.8 10.8 3 19.3 11.4 22.4 22.2 5.4 17.1 12.3 33.7 20.6 49.5 5.5 9.8 5.3 21.8-0.3 31.5-16 29.7-26.7 53.3-32.8 67.9l62.2 62.3c14.8-6.2 38.6-17 68.7-33.3 4.5-2.4 9.8-3.8 15.1-3.8z m0 0" fill="#ffffff" p-id="53107"></path><path d="M511.7 702.7C406 702.7 320 616.7 320 511c0-105.7 86-191.7 191.7-191.7 105.7 0 191.7 86 191.7 191.7 0 105.7-86 191.7-191.7 191.7z m0-319.5c-70.6 0-127.8 57.2-127.8 127.8s57.2 127.8 127.8 127.8S639.5 581.6 639.5 511c-0.1-70.6-57.3-127.7-127.8-127.8z m0 0" fill="#ffffff" p-id="53108"></path></svg>