<?xml version="1.0" standalone="no"?><!DOCTYPE svg PUBLIC "-//W3C//DTD SVG 1.1//EN" "http://www.w3.org/Graphics/SVG/1.1/DTD/svg11.dtd"><svg t="1565263140405" class="icon" viewBox="0 0 1286 1024" version="1.1" xmlns="http://www.w3.org/2000/svg" p-id="83398" xmlns:xlink="http://www.w3.org/1999/xlink" width="40.1875" height="32"><defs><style type="text/css"></style></defs><path d="M57.802866 994.965176a28.945897 28.945897 0 0 1-28.945897-28.945897v-413.512809a28.945897 28.945897 0 0 1 28.945897-28.768042h184.079896v471.315675z m0 0" fill="#ffffff" p-id="83399"></path><path d="M213.425966 552.684325v413.512809H58.114112v-413.512809H213.425966m57.802866-57.802866H57.802866a58.069648 58.069648 0 0 0-57.802866 57.802866v413.512809a58.069648 58.069648 0 0 0 57.802866 57.802866h213.11472z m0 0" fill="#ffffff" p-id="83400"></path><path d="M485.766392 512.622492l396.616587 189.860183 151.176726-66.695615A350.374294 350.374294 0 1 0 453.530178 505.686149z m189.193226-193.550673a21.787234 21.787234 0 1 1 0-43.530004h40.906643l-38.905775-55.801997a21.787234 21.787234 0 1 1 35.570995-24.988624L769.222753 275.319496h52.556144l56.468954-80.568302a21.787234 21.787234 0 0 1 35.570994 24.988624L875.001997 275.675206H915.953105a21.787234 21.787234 0 0 1 0 43.530005h-98.3538v44.90838H915.953105a21.787234 21.787234 0 0 1 0 43.530004h-98.3538v113.249154a20.897959 20.897959 0 0 1-20.853495 20.853495h-1.867477a20.897959 20.897959 0 0 1-20.853496-20.853495v-113.382545H675.848893a21.787234 21.787234 0 1 1 0-43.530004h98.398263v-44.908381z m0 0" fill="#ffffff" p-id="83401"></path><path d="M876.380373 728.894138l-414.891185-176.209813H237.125141v-57.802866l241.482588 2.312115L899.101346 675.848893z m0 0" fill="#ffffff" p-id="83402"></path><path d="M810.396179 1023.688754H226.231524a28.945897 28.945897 0 1 1 0-57.802866h569.13591c45.6198-25.477725 316.048285-176.209813 421.427355-237.34746-24.543986-46.33122-83.814155-90.528181-148.197655-75.010334-19.697438 4.846548-76.433174 31.48033-131.079114 57.447156-77.589231 36.59366-151.176726 71.141989-187.10343 78.256187-63.005124 12.494312-208.979592-10.182197-225.297786-12.983413a28.945897 28.945897 0 1 1 8.892749-57.180373c41.884846 6.714025 160.469648 22.009553 204.933391 13.339123 29.168215-5.780287 109.069561-43.530004 173.408597-73.854277 62.516023-29.390534 116.450543-55.090578 141.928268-61.359966 111.159357-27.567521 203.999653 62.516023 225.742423 134.991924l6.491706 21.520452-19.430655 11.560573c-90.750499 53.93452-447.349718 252.376205-450.81789 254.466001z m0 0" fill="#ffffff" p-id="83403"></path><path d="M504.530091 536.94416a322.984629 322.984629 0 1 1 383.677638 146.330178l16.184802 6.224924L1084.559618 604.706904A377.185931 377.185931 0 1 0 406.354147 377.40825a379.498046 379.498046 0 0 0 23.832566 131.301433z m0 0" fill="#ffffff" p-id="83404"></path></svg>