<?xml version="1.0" standalone="no"?><!DOCTYPE svg PUBLIC "-//W3C//DTD SVG 1.1//EN" "http://www.w3.org/Graphics/SVG/1.1/DTD/svg11.dtd"><svg t="1565261235405" class="icon" viewBox="0 0 1024 1024" version="1.1" xmlns="http://www.w3.org/2000/svg" p-id="58696" xmlns:xlink="http://www.w3.org/1999/xlink"><defs><style type="text/css"></style></defs><path d="M492.544 210.432c166.4 0 302.08 135.68 302.08 302.08s-135.68 302.08-302.08 302.08-302.08-135.68-302.08-302.08 135.68-302.08 302.08-302.08m0-51.2c-195.072 0-353.28 158.208-353.28 353.28s158.208 353.28 353.28 353.28 353.28-158.208 353.28-353.28-158.208-353.28-353.28-353.28z" fill="#ffffff" p-id="58697"></path><path d="M642.56 430.592c-8.704-5.12-19.456-1.536-24.576 7.168l-98.816 180.224-77.824-194.56c0-0.512-1.024-2.56-1.024-3.072-3.072-8.192-11.264-13.312-22.016-14.336h-41.984c-14.336 0-26.624 12.288-26.624 26.624s12.288 26.624 26.624 26.624h23.04l82.944 210.432c0.512 1.536 1.024 3.072 2.048 4.096 2.56 5.12 11.264 12.288 21.504 12.288 9.728 0 18.432-4.096 22.016-11.264 0-0.512 121.856-219.136 121.856-219.136 5.12-9.216 1.536-19.456-7.168-25.088z" fill="#ffffff" p-id="58698"></path></svg>
