<?xml version="1.0" standalone="no"?><!DOCTYPE svg PUBLIC "-//W3C//DTD SVG 1.1//EN" "http://www.w3.org/Graphics/SVG/1.1/DTD/svg11.dtd"><svg t="1565261051134" class="icon" viewBox="0 0 1024 1024" version="1.1" xmlns="http://www.w3.org/2000/svg" p-id="52229" xmlns:xlink="http://www.w3.org/1999/xlink" width="32" height="32"><defs><style type="text/css"></style></defs><path d="M337.92 865.28c-40.96 0-66.56 30.72-66.56 66.56 0 40.96 30.72 66.56 66.56 66.56 40.96 0 66.56-30.72 66.56-66.56 5.12-30.72-25.6-66.56-66.56-66.56zM819.2 865.28c-40.96 0-66.56 30.72-66.56 66.56 0 40.96 30.72 66.56 66.56 66.56 40.96 0 66.56-30.72 66.56-66.56 0-30.72-25.6-66.56-66.56-66.56zM880.64 768H322.56c-15.36 0-30.72-15.36-30.72-30.72l-56.32-409.6L204.8 133.12c-5.12-51.2-51.2-92.16-102.4-92.16h-46.08c-20.48 0-35.84 15.36-35.84 35.84s15.36 35.84 35.84 35.84H102.4c15.36 0 35.84 15.36 35.84 30.72l35.84 194.56 56.32 409.6c10.24 51.2 51.2 92.16 102.4 92.16h558.08c20.48 0 35.84-15.36 30.72-30.72-5.12-25.6-20.48-40.96-40.96-40.96z" fill="#ffffff" p-id="52230"></path><path d="M967.68 174.08c-20.48-20.48-40.96-30.72-66.56-30.72H307.2c-20.48 0-35.84 15.36-35.84 35.84s20.48 30.72 35.84 30.72h593.92c5.12 0 10.24 5.12 15.36 10.24 10.24 10.24 10.24 25.6 10.24 35.84l-51.2 307.2c0 15.36-15.36 30.72-35.84 30.72l-465.92 35.84c-20.48 5.12-35.84 20.48-35.84 40.96s15.36 35.84 35.84 35.84l465.92-40.96c51.2 0 97.28-40.96 102.4-87.04l51.2-307.2c5.12-46.08-5.12-76.8-25.6-97.28z" fill="#ffffff" p-id="52231"></path></svg>