<?xml version="1.0" standalone="no"?><!DOCTYPE svg PUBLIC "-//W3C//DTD SVG 1.1//EN" "http://www.w3.org/Graphics/SVG/1.1/DTD/svg11.dtd"><svg t="1565260926388" class="icon" viewBox="0 0 1024 1024" version="1.1" xmlns="http://www.w3.org/2000/svg" p-id="49315" xmlns:xlink="http://www.w3.org/1999/xlink" width="32" height="32"><defs><style type="text/css"></style></defs><path d="M457.43833264 169.37324182a72.74995484 72.74036947 0 1 0 145.4999097 0 72.74995484 72.74036947 0 1 0-145.4999097 0Z" fill="#ffffff" p-id="49316"></path><path d="M293.27086571 582.11556871c12.71342927-82.48711888 26.65858176-137.75011761 41.83705516-165.793789 49.59962773-91.63478107 100.99651708-132.66985812 116.59674782-134.60930311 31.41773052-3.90604856 68.80556468-4.68725826 87.55619546 0 21.75085939 5.43651667 36.66892951 16.84792969 44.75261282 34.23264159 7.51654744 75.50575595 18.89920434 122.62596149 34.14637302 141.36061651 42.21887339 51.87296399 105.55117738 69.21933425 123.7394649 69.21933423 0 18.18509235-9.20197944 48.08833042-9.20197948 48.08833042-26.97649735 0-119.25669508 0-169.18222623-80.30644141-2.80692322-4.51472114-6.62989837 22.25409268-11.4641327 80.30644141 64.6854423 62.78593647 106.48575341 113.7307147 125.39773825 152.83113949 18.91198482 39.1004248 28.34720891 113.70834878 28.30567224 223.82377187h-63.52401194c-4.42845261-60.15953816-12.45142846-106.58320495-24.07052504-139.27100033-11.61909658-32.68619783-45.77984773-75.44504849-102.48385091-128.27335686-21.66778598 51.40966989-45.91883597 99.90218446-72.74995482 145.48073891-26.83271642 45.57855442-61.32895639 86.26536215-103.48712231 122.06361828H275.5602504c52.97688199-75.77254945 90.57719245-134.6460471 112.80252896-176.61889536 22.22214133-41.97284824 38.02366537-83.74919589 47.39977951-125.32744534V394.4223467c-16.72651472 4.95245421-32.52644123 22.5847888-47.39977951 52.89540615-9.25310153 18.85607004-25.56105399 63.78761029-48.92385741 134.79781586h-46.16805624z" fill="#ffffff" p-id="49317"></path></svg>