<?xml version="1.0" standalone="no"?><!DOCTYPE svg PUBLIC "-//W3C//DTD SVG 1.1//EN" "http://www.w3.org/Graphics/SVG/1.1/DTD/svg11.dtd"><svg t="1565262775920" class="icon" viewBox="0 0 1024 1024" version="1.1" xmlns="http://www.w3.org/2000/svg" p-id="60319" xmlns:xlink="http://www.w3.org/1999/xlink" width="32" height="32"><defs><style type="text/css"></style></defs><path d="M695.5 957.9H166.7c-37.7 0-68.4-30.7-68.4-68.4C98.3 740.9 219.2 620 367.8 620h126.6c148.6 0 269.5 120.9 269.5 269.5 0 37.7-30.7 68.4-68.4 68.4zM367.8 672.2c-119.8 0-217.3 97.5-217.3 217.3 0 8.8 7.5 16.3 16.3 16.3h528.7c8.8 0 16.3-7.5 16.3-16.3 0-119.8-97.5-217.3-217.3-217.3H367.8z" fill="#ffffff" p-id="60320"></path><path d="M860.4 957.9H814c-14.4 0-26.1-11.7-26.1-26.1 0-14.4 11.7-26.1 26.1-26.1h46.3c8.8 0 16.3-7.5 16.3-16.3 0-94-62.9-179.4-152.9-207.5-13.7-4.3-21.4-18.9-17.1-32.7 4.3-13.8 19-21.3 32.7-17.1C850.9 667 928.8 772.8 928.8 889.4c0 37.8-30.7 68.5-68.4 68.5zM652.1 573.9c-12 0-22.7-8.3-25.4-20.4-3.1-14.1 5.7-28 19.8-31.1C718.1 506.5 770 441.6 770 368.1c0-73.8-50.1-137.1-121.8-153.9-14-3.3-22.7-17.3-19.5-31.3 3.3-14 17.3-22.7 31.3-19.4 95.4 22.3 162.1 106.5 162.1 204.6 0 97.7-69.1 184-164.4 205.2-1.8 0.4-3.7 0.6-5.6 0.6z" fill="#ffffff" p-id="60321"></path><path d="M429.6 578.3c-115.9 0-210.2-94.3-210.2-210.2S313.7 158 429.6 158s210.2 94.3 210.2 210.2-94.3 210.1-210.2 210.1z m0-368.2c-87.1 0-158 70.9-158 158s70.9 158 158 158 158-70.9 158-158-70.8-158-158-158z" fill="#ffffff" p-id="60322"></path></svg>