<?xml version="1.0" encoding="UTF-8"?>
<svg width="20px" height="18px" viewBox="0 0 20 18" version="1.1" xmlns="http://www.w3.org/2000/svg" xmlns:xlink="http://www.w3.org/1999/xlink">
    <!-- Generator: Sketch 57.1 (83088) - https://sketch.com -->
    <title>like</title>
    <desc>Created with Sketch.</desc>
    <g id="页面-1" stroke="none" stroke-width="1" fill="none" fill-rule="evenodd">
        <g id="like" transform="translate(-1.000000, -1.000000)" fill="#F47813">
            <path d="M14.7975178,7.13146034 L18.8908524,2.10158589 C19.26084,2.40689077 19.5856108,2.76317551 19.855444,3.15977593 L18.0570764,5.40113909 C17.8727457,5.63174012 17.9065573,5.96738854 18.1331772,6.15659235 C18.2417858,6.24561407 18.381494,6.28748717 18.5211624,6.27287859 C18.6608308,6.25827002 18.7888507,6.18839398 18.8766877,6.0788251 L20.4131463,4.16241794 C20.8042163,5.11558686 21.0007284,6.13733623 20.9911236,7.16756656 C21.0188976,11.0337097 17.4438261,12.3863043 15.1366386,14.0249713 C13.0258133,15.5275456 11.2205022,17.6355935 11.0019207,18.4910332 C10.7477884,17.6189291 9.12550811,15.5664292 6.84609455,14.0694097 C4.49530176,12.522397 0.964946486,11.0753707 0.991459394,7.20922758 C1.03993633,0.165736919 8.3981066,-1.24796054 10.986645,4.81788474 C12.3717352,1.55166036 15.3338341,0.468473703 17.6774056,1.39057106 L13.718775,6.2538014 C13.4764162,6.55168801 13.5214303,6.98964345 13.8193169,7.23200228 C14.1172035,7.4743611 14.555159,7.42934694 14.7975178,7.13146034 L14.7975178,7.13146034 Z" id="形状_2"></path>
        </g>
    </g>
</svg>